<svg height="816.61414" width="499.99997" xmlns="http://www.w3.org/2000/svg" xmlns:xlink="http://www.w3.org/1999/xlink">
  <radialGradient id="a" cx="1198.7987" cy="-54.180092" gradientTransform="matrix(1 0 0 1.63323 0 38.146561)"
    gradientUnits="userSpaceOnUse" r="23.688101">
    <stop offset="0" stop-color="#b00000" stop-opacity="0" />
    <stop offset="1" stop-color="#b00000" />
  </radialGradient>
  <filter id="b" color-interpolation-filters="sRGB" height="1.126468" width="1.398481" x="-.19924" y="-.063234">
    <feGaussianBlur stdDeviation="1.4048842" />
  </filter>
  <g transform="matrix(10.55382 0 0 10.55382 -12342.20724 1044.08406)">
    <path
      d="m1216.83-45.241391c0 13.08256-10.6055 23.68807-23.6881 23.68807-13.0825 0-23.6881-10.60551-23.6881-23.68807 0-13.08257 23.6881-34.929952 23.6881-53.688083 0 18.741692 23.6881 40.605513 23.6881 53.688083z"
      fill="#f00" />
    <path
      d="m1216.83-45.241391c0 13.08256-10.6055 23.68807-23.6881 23.68807-13.0825 0-23.6881-10.60551-23.6881-23.68807 0-13.08257 23.6881-34.929952 23.6881-53.688083 0 18.741692 23.6881 40.605513 23.6881 53.688083z"
      fill="url(#a)" />
    <path
      d="m1204.0625-28.46875c12.4738-10.829294 9.3667-20.747748 1.5574-32.864004-6.7073-10.40663-8.0297-15.133748-10.0844-20.457319 2.9218 9.566461 5.6752 15.803058 8.2899 21.375008 5.1581 10.992175 5.54 20.900963.2371 31.946315z"
      fill="#fff" filter="url(#b)" />
  </g>
</svg>